<svg id="Layer_1" data-name="Layer 1" xmlns="http://www.w3.org/2000/svg" viewBox="0 0 216.45 46.64">
    <defs>
        <style>.cls-1{fill:#fff;}.cls-2{fill:#8ab816;}.cls-3{fill:#212121;}</style>
    </defs>
    <path class="cls-1" d="M3.06,38.47V6.52H24.75V13H10.44v6.89H22.23v6H10.44V38.47Z"
        transform="translate(-3.06 -0.17)" />
    <path class="cls-1"
        d="M43.11,38.7a15.07,15.07,0,0,1-6.5-1.37,15.86,15.86,0,0,1-5-3.69,17,17,0,0,1-3.22-5.22,16.51,16.51,0,0,1-1.12-6,15.84,15.84,0,0,1,1.19-6.08,17.26,17.26,0,0,1,3.33-5.15A15.72,15.72,0,0,1,36.85,7.6a15.5,15.5,0,0,1,6.39-1.3A15,15,0,0,1,49.7,7.67a15.77,15.77,0,0,1,5,3.71,17.22,17.22,0,0,1,3.21,5.25A16.23,16.23,0,0,1,59,22.54a16,16,0,0,1-1.17,6.08,16.28,16.28,0,0,1-3.33,5.15,16.11,16.11,0,0,1-5.06,3.6A15.08,15.08,0,0,1,43.11,38.7ZM34.78,22.5a12,12,0,0,0,.54,3.58,9.71,9.71,0,0,0,1.6,3.08,7.91,7.91,0,0,0,2.63,2.16,7.76,7.76,0,0,0,3.6.81,7.85,7.85,0,0,0,3.69-.83,7.72,7.72,0,0,0,2.61-2.23A10.09,10.09,0,0,0,51,25.94a12.4,12.4,0,0,0,.51-3.53A11.81,11.81,0,0,0,51,18.85a9.67,9.67,0,0,0-1.62-3.08,7.67,7.67,0,0,0-2.65-2.14,8.05,8.05,0,0,0-3.56-.76,7.55,7.55,0,0,0-6.27,3A9.52,9.52,0,0,0,35.3,19,12.41,12.41,0,0,0,34.78,22.5Z"
        transform="translate(-3.06 -0.17)" />
    <path class="cls-1"
        d="M78.21,38.7a15.07,15.07,0,0,1-6.5-1.37,15.86,15.86,0,0,1-5-3.69,17,17,0,0,1-3.22-5.22,16.51,16.51,0,0,1-1.12-6,15.84,15.84,0,0,1,1.19-6.08,17.26,17.26,0,0,1,3.33-5.15A15.72,15.72,0,0,1,72,7.6a15.5,15.5,0,0,1,6.39-1.3A15,15,0,0,1,84.8,7.67a15.77,15.77,0,0,1,5,3.71A17.22,17.22,0,0,1,93,16.63a16.23,16.23,0,0,1,1.13,5.91A16,16,0,0,1,93,28.62a16.28,16.28,0,0,1-3.33,5.15,16.11,16.11,0,0,1-5.06,3.6A15.08,15.08,0,0,1,78.21,38.7ZM69.88,22.5a12,12,0,0,0,.54,3.58A9.71,9.71,0,0,0,72,29.16a7.91,7.91,0,0,0,2.63,2.16,7.76,7.76,0,0,0,3.6.81,7.85,7.85,0,0,0,3.69-.83,7.72,7.72,0,0,0,2.61-2.23,10.09,10.09,0,0,0,1.56-3.13,12.4,12.4,0,0,0,.51-3.53,11.81,11.81,0,0,0-.54-3.56,9.67,9.67,0,0,0-1.62-3.08,7.67,7.67,0,0,0-2.65-2.14,8.05,8.05,0,0,0-3.56-.76,7.55,7.55,0,0,0-6.27,3A9.52,9.52,0,0,0,70.4,19,12.41,12.41,0,0,0,69.88,22.5Z"
        transform="translate(-3.06 -0.17)" />
    <path class="cls-1"
        d="M99.31,38.47V6.52h11.93A16.8,16.8,0,0,1,120,8.66a13.88,13.88,0,0,1,5.33,5.76,17.82,17.82,0,0,1,1.8,8,17.34,17.34,0,0,1-2,8.46,13.87,13.87,0,0,1-5.56,5.57,16.93,16.93,0,0,1-8.39,2Zm20.34-16a11.57,11.57,0,0,0-1-4.93,7.57,7.57,0,0,0-2.88-3.33,8.29,8.29,0,0,0-4.54-1.2h-4.55V32h4.55a8.14,8.14,0,0,0,4.57-1.23,8,8,0,0,0,2.85-3.42A11.72,11.72,0,0,0,119.65,22.46Z"
        transform="translate(-3.06 -0.17)" />
    <path class="cls-2"
        d="M123.75,39.57a22.32,22.32,0,0,1-7.51-1.22,13.48,13.48,0,0,1-5.67-3.7,9.94,9.94,0,0,1-2.45-6.19,9.44,9.44,0,0,1,.48-3.36,17.87,17.87,0,0,1,1.55-3.46,15.16,15.16,0,0,1,2.4-3.12,10.73,10.73,0,0,1,3-2.16,1.93,1.93,0,0,1,.69-.22,3.4,3.4,0,0,1,.53-.05A1.15,1.15,0,0,1,118,17.21a1.93,1.93,0,0,1-1,1.44,11,11,0,0,0-2.51,2.77A12.42,12.42,0,0,0,113,24.84a13.26,13.26,0,0,0-.52,3.69,6.81,6.81,0,0,0,.87,3.54,7.42,7.42,0,0,0,2.42,2.47A11.74,11.74,0,0,0,119.35,36a18.82,18.82,0,0,0,4.37.5,22.79,22.79,0,0,0,5.07-.58,19.17,19.17,0,0,0,4.54-1.63,14.52,14.52,0,0,0,4.92-4.07A7.7,7.7,0,0,0,140,25.69a5,5,0,0,0-.49-2.18,5.35,5.35,0,0,0-1.57-1.88,12.69,12.69,0,0,0-2.17-1.33c-.89-.44-1.85-.87-2.86-1.29s-2-.87-3-1.31a17.35,17.35,0,0,1-2.76-1.51,8.53,8.53,0,0,1-2.63-2.63,5.76,5.76,0,0,1-.88-3,6.45,6.45,0,0,1,1-3.41,10.6,10.6,0,0,1,2.61-2.81,12.92,12.92,0,0,1,3.66-1.93,23.25,23.25,0,0,1,3.74-.92,24.69,24.69,0,0,1,4-.33,19.78,19.78,0,0,1,3.13.23,9.17,9.17,0,0,1,2.81.88,6,6,0,0,1,2.44,2,4.92,4.92,0,0,1,.9,2.79,4.53,4.53,0,0,1-1.8,3.56,8.88,8.88,0,0,1-1.33.86,8.92,8.92,0,0,1-1.73.66,2.64,2.64,0,0,1-.62.08A1.31,1.31,0,0,1,140.92,11a1.4,1.4,0,0,1,.69-1.17,2.51,2.51,0,0,1,1.27-.39,1.64,1.64,0,0,0,1.52-1.68,2.68,2.68,0,0,0-.53-1.5,4.38,4.38,0,0,0-1.75-1.39,7.63,7.63,0,0,0-3.24-.59,14.61,14.61,0,0,0-2.65.26,20.87,20.87,0,0,0-3.18.88,8.33,8.33,0,0,0-3.28,2,3.47,3.47,0,0,0-1.17,2.46,2.77,2.77,0,0,0,.53,1.54,6,6,0,0,0,2,1.72,28.51,28.51,0,0,0,2.9,1.53c1.11.52,2.24,1,3.39,1.55a28,28,0,0,1,3.24,1.73,10.37,10.37,0,0,1,3.48,3.24,7.12,7.12,0,0,1,1.11,3.73,8.55,8.55,0,0,1-1.28,4.36,17,17,0,0,1-3.17,3.87,25.68,25.68,0,0,1-4.2,3.14,22.7,22.7,0,0,1-6.05,2.45A27.16,27.16,0,0,1,123.75,39.57Z"
        transform="translate(-3.06 -0.17)" />
    <path class="cls-3"
        d="M138.6,2.17a19.07,19.07,0,0,1,3,.22,7.8,7.8,0,0,1,2.5.78,5,5,0,0,1,2.08,1.7,3.86,3.86,0,0,1,.72,2.22,3.57,3.57,0,0,1-1.44,2.8,10,10,0,0,1-1.16.74,7.9,7.9,0,0,1-1.53.58,1.78,1.78,0,0,1-.35,0c-.32,0-.48-.1-.48-.28s.08-.22.26-.34a1.51,1.51,0,0,1,.78-.22,2.78,2.78,0,0,0,1.82-.92,2.74,2.74,0,0,0,.62-1.76,3.65,3.65,0,0,0-.7-2.06A5.32,5.32,0,0,0,142.56,4a8.39,8.39,0,0,0-3.68-.7,15.45,15.45,0,0,0-2.82.28,20.41,20.41,0,0,0-3.34.92,9.16,9.16,0,0,0-3.66,2.24,4.42,4.42,0,0,0-1.46,3.16,3.85,3.85,0,0,0,.69,2.1,7.28,7.28,0,0,0,2.27,2,31.71,31.71,0,0,0,3,1.58l3.4,1.56a26.74,26.74,0,0,1,3.12,1.66,9.41,9.41,0,0,1,3.16,2.92,6,6,0,0,1,1,3.2,7.59,7.59,0,0,1-1.14,3.86,16.71,16.71,0,0,1-3,3.64,25.16,25.16,0,0,1-4,3,22.08,22.08,0,0,1-5.79,2.34,26.5,26.5,0,0,1-6.5.82,21.31,21.31,0,0,1-7.17-1.16A12.48,12.48,0,0,1,111.32,34a8.93,8.93,0,0,1-2.2-5.58,8.12,8.12,0,0,1,.44-3A15.63,15.63,0,0,1,111,22.15a13.94,13.94,0,0,1,2.23-2.92,9.54,9.54,0,0,1,2.79-2,.77.77,0,0,1,.38-.12,2.32,2.32,0,0,1,.37,0c.17,0,.25,0,.25.12s-.21.34-.6.64a11.85,11.85,0,0,0-2.76,3A13.18,13.18,0,0,0,112,24.57a14,14,0,0,0-.56,4,7.77,7.77,0,0,0,1,4.06,8.52,8.52,0,0,0,2.74,2.8A12.65,12.65,0,0,0,119.12,37a20.26,20.26,0,0,0,4.6.52,23.73,23.73,0,0,0,5.3-.6,20.23,20.23,0,0,0,4.77-1.72,15.6,15.6,0,0,0,5.27-4.36A8.68,8.68,0,0,0,141,25.69a5.94,5.94,0,0,0-2.44-4.84,12.72,12.72,0,0,0-2.34-1.44c-.93-.46-1.9-.9-2.93-1.32s-2-.86-3-1.3a17,17,0,0,1-2.6-1.42,7.75,7.75,0,0,1-2.35-2.32,4.85,4.85,0,0,1-.73-2.48,5.36,5.36,0,0,1,.86-2.88,9.23,9.23,0,0,1,2.36-2.54,11.6,11.6,0,0,1,3.38-1.78,21.07,21.07,0,0,1,3.58-.88,22.64,22.64,0,0,1,3.82-.32m0-2a25.52,25.52,0,0,0-4.15.34,25,25,0,0,0-3.9,1,14.12,14.12,0,0,0-3.94,2.08,11.38,11.38,0,0,0-2.86,3.09,7.4,7.4,0,0,0-1.15,3.93,6.76,6.76,0,0,0,1,3.5A9.47,9.47,0,0,0,126.56,17a17.89,17.89,0,0,0,2.9,1.59c1,.45,2,.89,3.07,1.32s1.93.84,2.8,1.27a11.23,11.23,0,0,1,2,1.22,4.31,4.31,0,0,1,1.28,1.51,4,4,0,0,1,.4,1.76,6.71,6.71,0,0,1-1.55,4,13.51,13.51,0,0,1-4.59,3.79A18.1,18.1,0,0,1,128.57,35a22,22,0,0,1-4.85.55,18.14,18.14,0,0,1-4.15-.47,10.62,10.62,0,0,1-3.3-1.36,6.41,6.41,0,0,1-2.1-2.14,5.81,5.81,0,0,1-.73-3,12.5,12.5,0,0,1,.48-3.42A11.5,11.5,0,0,1,115.35,22a9.9,9.9,0,0,1,2.3-2.54A2.91,2.91,0,0,0,119,17.21a2.14,2.14,0,0,0-2.25-2.12,3.65,3.65,0,0,0-.67.06,3,3,0,0,0-1,.32,12,12,0,0,0-3.27,2.34,15.91,15.91,0,0,0-2.55,3.33,18.73,18.73,0,0,0-1.64,3.66,10.27,10.27,0,0,0-.53,3.72,11,11,0,0,0,2.7,6.79,14.35,14.35,0,0,0,6.08,4,23.29,23.29,0,0,0,7.85,1.28,28.17,28.17,0,0,0,7-.89,23.85,23.85,0,0,0,6.31-2.56,26.77,26.77,0,0,0,4.37-3.27,17.75,17.75,0,0,0,3.35-4.09,9.58,9.58,0,0,0,1.42-4.87,8,8,0,0,0-1.26-4.25,11.41,11.41,0,0,0-3.81-3.58,30.7,30.7,0,0,0-3.35-1.78c-1.14-.51-2.27-1-3.38-1.55a30.08,30.08,0,0,1-2.81-1.47A5.22,5.22,0,0,1,130,10.84a1.88,1.88,0,0,1-.36-1,2.4,2.4,0,0,1,.88-1.76,7.22,7.22,0,0,1,2.89-1.75,19.77,19.77,0,0,1,3-.85,14.45,14.45,0,0,1,2.47-.24,6.54,6.54,0,0,1,2.8.49,3.56,3.56,0,0,1,1.37,1.06,1.69,1.69,0,0,1,.35.93.72.72,0,0,1-.17.49,1,1,0,0,1-.5.2A3.53,3.53,0,0,0,141,9a2.38,2.38,0,0,0-1.11,2,2.31,2.31,0,0,0,2.48,2.28,3.86,3.86,0,0,0,.84-.1,9.11,9.11,0,0,0,2-.76,10.15,10.15,0,0,0,1.44-.92l0,0,0,0a5.53,5.53,0,0,0,2.16-4.33,5.87,5.87,0,0,0-1.07-3.35A7,7,0,0,0,145,1.37a10.29,10.29,0,0,0-3.08-1A21.72,21.72,0,0,0,138.6.17Z"
        transform="translate(-3.06 -0.17)" />
    <path class="cls-2"
        d="M172.71,45.81A4.74,4.74,0,0,1,169,44.47a4.13,4.13,0,0,1-.73-4.61,2.91,2.91,0,0,1,1.25-1.38,2.7,2.7,0,0,1,1.19-.31,2.29,2.29,0,0,1,1.42.49,1.91,1.91,0,0,1,.74,1.55,2,2,0,0,1,0,.43,2.44,2.44,0,0,1-.09.33l-.09.26-.21.18a1,1,0,0,0-.23.32,1.92,1.92,0,0,0-.2.51l0,.1v.11a.26.26,0,0,0,.07.21h.08a2,2,0,0,0,1.27-.53,8.41,8.41,0,0,0,1.59-1.7,21.91,21.91,0,0,0,1.4-2.2c.42-.76.76-1.41,1-1.94,1.22-2.47,2.39-5.06,3.48-7.71.9-2.2,1.77-4.37,2.6-6.49a4.55,4.55,0,0,0-.86.18,1.06,1.06,0,0,0-.64.57l-1.37,2.62c-.51,1-1.09,1.94-1.71,2.89a1.3,1.3,0,0,1-1.12.73c-.28,0-1.2-.12-1.2-1.6a3.65,3.65,0,0,1,.35-1.65c.42-.7.8-1.42,1.17-2.2s.73-1.57,1-2.31.54-1.31.69-1.76a2.67,2.67,0,0,1,.69-1.18,1.77,1.77,0,0,1,1.24-.41l.49,0,2.73.22.68-1.8.9-2.35a37.61,37.61,0,0,1,2.18-4.57A12.28,12.28,0,0,1,192,5.75,8,8,0,0,1,197,4.21h.23a6.36,6.36,0,0,1,2.71.54,3.93,3.93,0,0,1,2,2.36,3.53,3.53,0,0,1,.18,1.19,4.82,4.82,0,0,1-.49,2.07A3.32,3.32,0,0,1,200.1,12a2.18,2.18,0,0,1-.74.26,3.4,3.4,0,0,1-.61.06,2.6,2.6,0,0,1-1.49-.46,1.94,1.94,0,0,1-.83-1.62,2.39,2.39,0,0,1,.2-.92l.11-.25.23-.17a1.64,1.64,0,0,0,.62-.94s0-.11,0-.17c0-.31-.06-.34-.11-.38l-.07,0,0,0-.1,0a2,2,0,0,0-.35,0,2.06,2.06,0,0,0-1.59.88,16.32,16.32,0,0,0-2.21,3.44,43.76,43.76,0,0,0-1.84,4.3l-.95,2.6,1.69,0c1,0,1.87-.11,2.58-.2a4.23,4.23,0,0,0,1-.18l2.56-1.7-1.14,2.92a3.41,3.41,0,0,1-1.32,1.69,5.77,5.77,0,0,1-2.39.79,16.47,16.47,0,0,1-2.3.23l-2,.08-.93,2.71c-.38,1.08-.83,2.32-1.35,3.74s-1.12,2.92-1.8,4.47a49.63,49.63,0,0,1-2.27,4.56A30.66,30.66,0,0,1,180,41.57a13.9,13.9,0,0,1-3.29,3A7.32,7.32,0,0,1,172.71,45.81Z"
        transform="translate(-3.06 -0.17)" />
    <path class="cls-3"
        d="M197.18,5.2a5.35,5.35,0,0,1,2.29.45A3,3,0,0,1,201,7.45a2.66,2.66,0,0,1,.12.84,3.76,3.76,0,0,1-.4,1.64,2.28,2.28,0,0,1-1.08,1.16,1.29,1.29,0,0,1-.44.16,3.59,3.59,0,0,1-.44,0,1.64,1.64,0,0,1-.92-.28,1,1,0,0,1-.4-.8,1.3,1.3,0,0,1,.12-.52,2.66,2.66,0,0,0,1-1.48,2,2,0,0,0,.06-.28,1,1,0,0,0,0-.24,1.24,1.24,0,0,0-.6-1.16,1.11,1.11,0,0,0-.52-.26,2.6,2.6,0,0,0-.56-.06,3,3,0,0,0-2.36,1.24,17,17,0,0,0-2.34,3.64,47.28,47.28,0,0,0-1.88,4.4c-.54,1.49-1,2.81-1.46,4q1.65,0,3.18-.06c1,0,1.92-.11,2.66-.2a4.63,4.63,0,0,0,1.36-.3,2.42,2.42,0,0,1-.94,1.2,5.15,5.15,0,0,1-2,.64A19.15,19.15,0,0,1,191,21l-2.64.1-1.16,3.36c-.37,1.06-.82,2.3-1.34,3.72s-1.11,2.88-1.78,4.42A45.16,45.16,0,0,1,181.85,37,29.38,29.38,0,0,1,179.21,41a12.88,12.88,0,0,1-3,2.82,6.31,6.31,0,0,1-3.46,1,3.81,3.81,0,0,1-3-1,3.26,3.26,0,0,1-.88-2.16,3.14,3.14,0,0,1,.3-1.36,1.91,1.91,0,0,1,.82-.92,1.57,1.57,0,0,1,.72-.2,1.24,1.24,0,0,1,.8.28.9.9,0,0,1,.36.76.78.78,0,0,1,0,.22,1.23,1.23,0,0,1-.06.22,2,2,0,0,0-.46.6,3.12,3.12,0,0,0-.3.8.54.54,0,0,0,0,.2v.2a1.31,1.31,0,0,0,.32.88,1,1,0,0,0,.72.36,3.21,3.21,0,0,0,2-.76,9.3,9.3,0,0,0,1.78-1.9,21.51,21.51,0,0,0,1.46-2.3c.43-.78.78-1.44,1-2q1.84-3.72,3.5-7.76c1.11-2.7,2.16-5.32,3.14-7.88h-1.12a5.09,5.09,0,0,0-1.5.24,2.06,2.06,0,0,0-1.22,1q-.63,1.23-1.38,2.64c-.49.93-1,1.86-1.66,2.8-.1.18-.2.28-.28.28s-.2-.2-.2-.6a2.67,2.67,0,0,1,.24-1.2c.4-.67.8-1.41,1.18-2.22s.74-1.6,1.06-2.34.56-1.36.72-1.84a2,2,0,0,1,.42-.76.85.85,0,0,1,.57-.15l.37,0,3.52.28c.32-.86.64-1.69.94-2.5s.61-1.6.9-2.34A36.26,36.26,0,0,1,189.63,10a11.08,11.08,0,0,1,3-3.46A7,7,0,0,1,197,5.21h.23m0-2h-.25A9,9,0,0,0,191.41,5,13.17,13.17,0,0,0,187.89,9a39.63,39.63,0,0,0-2.24,4.69c-.3.76-.6,1.55-.91,2.37-.13.36-.27.72-.41,1.09l-2-.16-.56,0a2.77,2.77,0,0,0-1.92.67,3.74,3.74,0,0,0-1,1.56c-.15.47-.38,1-.67,1.73s-.66,1.48-1,2.27-.73,1.44-1.09,2.05l0,.06,0,.07a4.64,4.64,0,0,0-.46,2.1,2.28,2.28,0,0,0,2.2,2.6,2.2,2.2,0,0,0,1.77-.92c-1,2.3-2,4.54-3,6.67-.26.54-.59,1.18-1,1.92a21,21,0,0,1-1.33,2.1c-.1.14-.21.28-.32.41v-.06a2.88,2.88,0,0,0-1.13-2.34,3.27,3.27,0,0,0-2-.7,3.5,3.5,0,0,0-1.61.41h0a3.94,3.94,0,0,0-1.69,1.84,5.13,5.13,0,0,0,.89,5.69,5.68,5.68,0,0,0,4.46,1.68,8.29,8.29,0,0,0,4.54-1.36,14.7,14.7,0,0,0,3.53-3.26,32,32,0,0,0,2.81-4.2,49.13,49.13,0,0,0,2.32-4.65c.68-1.57,1.29-3.09,1.82-4.52s1-2.68,1.35-3.75L189.8,23l1.29-.06a19.34,19.34,0,0,0,2.45-.24,6.94,6.94,0,0,0,2.75-.95,4.41,4.41,0,0,0,1.7-2.17l2.13-5.76-4.92,3.27a5.13,5.13,0,0,1-.69.11c-.69.09-1.53.15-2.49.19h-.22l.45-1.23a44.2,44.2,0,0,1,1.8-4.2,16.79,16.79,0,0,1,1.47-2.47,2.82,2.82,0,0,0-.09.71,2.91,2.91,0,0,0,1.26,2.43,3.57,3.57,0,0,0,2.06.65,5.37,5.37,0,0,0,.77-.07,3.27,3.27,0,0,0,1-.36,4.33,4.33,0,0,0,2-2.07,5.86,5.86,0,0,0,.59-2.5,4.64,4.64,0,0,0-.22-1.48v0a4.92,4.92,0,0,0-2.56-2.93,7.38,7.38,0,0,0-3.13-.63Z"
        transform="translate(-3.06 -0.17)" />
    <path class="cls-2"
        d="M160.36,35.13a2,2,0,0,1-1.7-1,4.81,4.81,0,0,1-.5-3.06,16.32,16.32,0,0,1,.39-2.24,30.06,30.06,0,0,1,.87-2.94c.36-1.06.76-2.08,1.21-3.08a17,17,0,0,1,1.49-2.66,1.82,1.82,0,0,1,.9-.74,6.41,6.41,0,0,1,1.69-.14h1.92a21.41,21.41,0,0,0-1.43,2.4c-.51,1-1,1.91-1.41,2.86s-.75,1.74-1,2.38c0,.18-.16.51-.31,1a15.17,15.17,0,0,0-.44,1.54,6.46,6.46,0,0,0-.21,1.56,2.27,2.27,0,0,0,.25,1.08.91.91,0,0,0,.88.44,2.63,2.63,0,0,0,1.63-1,14.19,14.19,0,0,0,1.77-2.36c.58-1,1.16-2,1.73-3s1.1-2,1.57-3,.86-1.64,1.17-2.14a10.31,10.31,0,0,1,1.29-1.62,2.09,2.09,0,0,1,1.55-.7c.22,0,.5,0,.87,0l1.08,0a5.47,5.47,0,0,0,.74,0,2.36,2.36,0,0,0-.57.64c-.21.32-.41.64-.62,1s-.35.6-.46.82c-.69,1.38-1.36,2.78-2,4.18a21.38,21.38,0,0,0-1.46,4,4.46,4.46,0,0,0-.2,1.24c0,.8.26,1.2.79,1.2a3.16,3.16,0,0,0,1.61-.8A9.88,9.88,0,0,0,175,29.37a20.18,20.18,0,0,0,1.55-2.24c.49-.8.9-1.54,1.24-2.2.11-.19.21-.28.29-.28s.24.21.24.64a3.16,3.16,0,0,1-.11.74,2.72,2.72,0,0,1-.33.82c-.38.64-.82,1.34-1.33,2.1s-1,1.51-1.55,2.26a21,21,0,0,1-1.48,1.64,14.31,14.31,0,0,1-1.94,1.6,3.61,3.61,0,0,1-2,.68,2.62,2.62,0,0,1-1-.22,1.87,1.87,0,0,1-.8-.86,5.5,5.5,0,0,1-.39-2.28c0-.3,0-.61,0-.94a8.86,8.86,0,0,1,.12-1,15.12,15.12,0,0,1-1.27,1.56c-.43.48-.88,1-1.33,1.44a8.32,8.32,0,0,1-2.59,1.92A5.72,5.72,0,0,1,160.36,35.13Z"
        transform="translate(-3.06 -0.17)" />
    <path class="cls-2"
        d="M150.88,35.13a2,2,0,0,1-1.76-.92,2.82,2.82,0,0,1-.4-1,6.36,6.36,0,0,1-.12-1.24,9.55,9.55,0,0,1,.08-1.3c0-.44.11-.88.2-1.3a18.42,18.42,0,0,1,.45-1.9c.18-.58.36-1.13.55-1.66v0c-.22.4-.48.83-.8,1.3s-.55.8-.68,1-.34.44-.44.44-.17-.12-.17-.36a4,4,0,0,1,.49-1.76c.21-.43.5-1,.88-1.66s.76-1.42,1.16-2.22.74-1.58,1-2.32h-2.68c-.14,0-.16-.11-.08-.32a2,2,0,0,1,.36-.62q.24-.3.36-.3h3c.29-.7.63-1.44,1-2.24a14.85,14.85,0,0,1,1.32-2.26,7.56,7.56,0,0,1,1.62-1.74A3,3,0,0,1,158.2,12h1.09a5.75,5.75,0,0,0,.83,0,8.07,8.07,0,0,0-2,2.22,28.84,28.84,0,0,0-2.44,4.74h4c.07,0,.05.1-.08.3a6.18,6.18,0,0,1-.5.62.86.86,0,0,1-.58.32h-3.44L154,23.05c-.42,1-.79,2.06-1.12,3.06a20.7,20.7,0,0,0-.74,2.74,6.54,6.54,0,0,0-.16,1.4c0,1,.32,1.52,1,1.52a2.83,2.83,0,0,0,1.52-.64,9.73,9.73,0,0,0,1.76-1.76c.53-.7,1-1.44,1.54-2.24s.91-1.54,1.26-2.2c.1-.19.2-.28.28-.28s.24.21.24.64a3.7,3.7,0,0,1-.1.74,3,3,0,0,1-.34.82c-.38.64-.82,1.34-1.33,2.1s-1,1.51-1.55,2.26c-.38.48-.86,1-1.46,1.64a12.54,12.54,0,0,1-1.92,1.6A3.6,3.6,0,0,1,150.88,35.13Z"
        transform="translate(-3.06 -0.17)" />
    <path class="cls-2"
        d="M172.71,44.81a3.81,3.81,0,0,1-3-1,3.26,3.26,0,0,1-.88-2.16,3.14,3.14,0,0,1,.3-1.36,1.91,1.91,0,0,1,.82-.92,1.57,1.57,0,0,1,.72-.2,1.24,1.24,0,0,1,.8.28.9.9,0,0,1,.36.76.78.78,0,0,1,0,.22,1.23,1.23,0,0,1-.06.22,2,2,0,0,0-.46.6,3.12,3.12,0,0,0-.3.8.54.54,0,0,0,0,.2v.2a1.31,1.31,0,0,0,.32.88,1,1,0,0,0,.72.36,3.21,3.21,0,0,0,2-.76,9.3,9.3,0,0,0,1.78-1.9,21.51,21.51,0,0,0,1.46-2.3c.43-.78.78-1.44,1-2q1.84-3.72,3.5-7.76c1.11-2.7,2.16-5.32,3.14-7.88h-1.12a5.09,5.09,0,0,0-1.5.24,2.06,2.06,0,0,0-1.22,1q-.63,1.23-1.38,2.64c-.49.93-1,1.86-1.66,2.8-.1.18-.2.28-.28.28s-.2-.2-.2-.6a2.67,2.67,0,0,1,.24-1.2c.4-.67.8-1.41,1.18-2.22s.74-1.6,1.06-2.34.56-1.36.72-1.84a2,2,0,0,1,.42-.76c.15-.14.46-.18.94-.12l3.52.28c.32-.86.64-1.69.94-2.5s.61-1.6.9-2.34A36.26,36.26,0,0,1,189.63,10a11.08,11.08,0,0,1,3-3.46A7,7,0,0,1,197,5.21a5.55,5.55,0,0,1,2.52.44A3,3,0,0,1,201,7.45a2.66,2.66,0,0,1,.12.84,3.76,3.76,0,0,1-.4,1.64,2.28,2.28,0,0,1-1.08,1.16,1.29,1.29,0,0,1-.44.16,3.59,3.59,0,0,1-.44,0,1.64,1.64,0,0,1-.92-.28,1,1,0,0,1-.4-.8,1.3,1.3,0,0,1,.12-.52,2.66,2.66,0,0,0,1-1.48,2,2,0,0,0,.06-.28,1,1,0,0,0,0-.24,1.24,1.24,0,0,0-.6-1.16,1.11,1.11,0,0,0-.52-.26,2.6,2.6,0,0,0-.56-.06,3,3,0,0,0-2.36,1.24,17,17,0,0,0-2.34,3.64,47.28,47.28,0,0,0-1.88,4.4c-.54,1.49-1,2.81-1.46,4q1.65,0,3.18-.06c1,0,1.92-.11,2.66-.2a4.63,4.63,0,0,0,1.36-.3,2.42,2.42,0,0,1-.94,1.2,5.15,5.15,0,0,1-2,.64A19.15,19.15,0,0,1,191,21l-2.64.1-1.16,3.36c-.37,1.06-.82,2.3-1.34,3.72s-1.11,2.88-1.78,4.42A45.16,45.16,0,0,1,181.85,37,29.38,29.38,0,0,1,179.21,41a12.88,12.88,0,0,1-3,2.82A6.31,6.31,0,0,1,172.71,44.81Z"
        transform="translate(-3.06 -0.17)" />
    <path class="cls-2"
        d="M189.11,45.81a4.72,4.72,0,0,1-3.71-1.34,4.13,4.13,0,0,1-.73-4.61,2.91,2.91,0,0,1,1.25-1.38,2.7,2.7,0,0,1,1.19-.31,2.29,2.29,0,0,1,1.42.49,1.91,1.91,0,0,1,.74,1.55,2,2,0,0,1,0,.43c0,.08,0,.2-.09.33l-.09.26-.22.18a1.34,1.34,0,0,0-.22.32,1.92,1.92,0,0,0-.2.51l0,.1v.11a.26.26,0,0,0,.07.21h.08a2,2,0,0,0,1.27-.53,8.41,8.41,0,0,0,1.59-1.7,21.91,21.91,0,0,0,1.4-2.2c.42-.76.76-1.41,1-1.94,1.22-2.47,2.39-5.06,3.48-7.71.9-2.2,1.77-4.37,2.6-6.49a4.55,4.55,0,0,0-.86.18,1.06,1.06,0,0,0-.64.57L197,25.47c-.51,1-1.09,1.94-1.71,2.89a1.3,1.3,0,0,1-1.12.73c-.28,0-1.2-.12-1.2-1.6a3.65,3.65,0,0,1,.35-1.65c.42-.7.8-1.42,1.17-2.2s.73-1.57,1-2.31.54-1.31.7-1.76a2.67,2.67,0,0,1,.69-1.18,1.77,1.77,0,0,1,1.24-.41l.49,0,2.73.22.68-1.8c.3-.81.61-1.6.9-2.35a37.61,37.61,0,0,1,2.18-4.57,12.28,12.28,0,0,1,3.25-3.76,8,8,0,0,1,4.94-1.54h.23a6.36,6.36,0,0,1,2.71.54,3.93,3.93,0,0,1,2,2.36,3.53,3.53,0,0,1,.18,1.19,4.82,4.82,0,0,1-.49,2.07A3.32,3.32,0,0,1,216.5,12a2.18,2.18,0,0,1-.74.26,3.49,3.49,0,0,1-.61.06,2.6,2.6,0,0,1-1.49-.46,1.94,1.94,0,0,1-.83-1.62,2.39,2.39,0,0,1,.2-.92l.11-.25.23-.17a1.64,1.64,0,0,0,.62-.94s0-.11,0-.17c0-.31-.06-.34-.11-.38l-.07,0-.06,0a.45.45,0,0,0-.09,0,2,2,0,0,0-.35,0,2.06,2.06,0,0,0-1.59.88,15.93,15.93,0,0,0-2.21,3.44,43.76,43.76,0,0,0-1.84,4.3c-.34.94-.66,1.8-1,2.6l1.7,0c1,0,1.87-.11,2.58-.2a4.23,4.23,0,0,0,1-.18l2.56-1.7-1.14,2.92a3.41,3.41,0,0,1-1.32,1.69,5.77,5.77,0,0,1-2.39.79,16.47,16.47,0,0,1-2.3.23l-2,.08-.93,2.71c-.38,1.08-.83,2.32-1.35,3.74s-1.13,2.92-1.8,4.47a49.63,49.63,0,0,1-2.27,4.56,30.66,30.66,0,0,1-2.72,4.07,13.9,13.9,0,0,1-3.29,3A7.32,7.32,0,0,1,189.11,45.81Z"
        transform="translate(-3.06 -0.17)" />
    <path class="cls-3"
        d="M213.58,5.2a5.35,5.35,0,0,1,2.29.45,3,3,0,0,1,1.52,1.8,2.66,2.66,0,0,1,.12.84,3.76,3.76,0,0,1-.4,1.64A2.28,2.28,0,0,1,216,11.09a1.29,1.29,0,0,1-.44.16,3.59,3.59,0,0,1-.44,0,1.64,1.64,0,0,1-.92-.28,1,1,0,0,1-.4-.8,1.3,1.3,0,0,1,.12-.52,2.66,2.66,0,0,0,1-1.48,2,2,0,0,0,.06-.28,1,1,0,0,0,0-.24,1.24,1.24,0,0,0-.6-1.16,1.11,1.11,0,0,0-.52-.26,2.6,2.6,0,0,0-.56-.06A3,3,0,0,0,211,7.45a17,17,0,0,0-2.34,3.64,47.28,47.28,0,0,0-1.88,4.4c-.54,1.49-1,2.81-1.46,4q1.65,0,3.18-.06c1,0,1.92-.11,2.66-.2a4.63,4.63,0,0,0,1.36-.3,2.42,2.42,0,0,1-.94,1.2,5.15,5.15,0,0,1-2,.64,19.15,19.15,0,0,1-2.2.22l-2.64.1-1.16,3.36c-.37,1.06-.82,2.3-1.34,3.72s-1.11,2.88-1.78,4.42A45.16,45.16,0,0,1,198.25,37,29.38,29.38,0,0,1,195.61,41a12.88,12.88,0,0,1-3,2.82,6.31,6.31,0,0,1-3.46,1,3.81,3.81,0,0,1-3-1,3.26,3.26,0,0,1-.88-2.16,3.14,3.14,0,0,1,.3-1.36,1.91,1.91,0,0,1,.82-.92,1.57,1.57,0,0,1,.72-.2,1.24,1.24,0,0,1,.8.28.9.9,0,0,1,.36.76.78.78,0,0,1,0,.22,1.23,1.23,0,0,1-.06.22,2,2,0,0,0-.46.6,3.12,3.12,0,0,0-.3.8.54.54,0,0,0,0,.2v.2a1.31,1.31,0,0,0,.32.88,1,1,0,0,0,.72.36,3.21,3.21,0,0,0,2-.76,9.3,9.3,0,0,0,1.78-1.9,21.51,21.51,0,0,0,1.46-2.3c.43-.78.78-1.44,1-2q1.84-3.72,3.5-7.76c1.11-2.7,2.16-5.32,3.14-7.88h-1.12a5.09,5.09,0,0,0-1.5.24,2.06,2.06,0,0,0-1.22,1q-.63,1.23-1.38,2.64c-.49.93-1,1.86-1.66,2.8-.1.18-.2.28-.28.28s-.2-.2-.2-.6a2.67,2.67,0,0,1,.24-1.2c.4-.67.8-1.41,1.18-2.22s.74-1.6,1.06-2.34.56-1.36.72-1.84a2,2,0,0,1,.42-.76.85.85,0,0,1,.57-.15l.37,0,3.52.28c.32-.86.64-1.69.94-2.5s.61-1.6.9-2.34A36.26,36.26,0,0,1,206,10a11.08,11.08,0,0,1,3-3.46,7,7,0,0,1,4.34-1.34h.23m0-2h-.25A9,9,0,0,0,207.81,5,13.17,13.17,0,0,0,204.29,9a39.63,39.63,0,0,0-2.24,4.69c-.3.76-.6,1.55-.91,2.37-.13.36-.27.72-.41,1.09l-2-.16-.56,0a2.77,2.77,0,0,0-1.92.67,3.74,3.74,0,0,0-.95,1.56c-.15.47-.38,1-.67,1.73s-.66,1.48-1,2.27-.73,1.44-1.09,2.05l0,.06,0,.07a4.64,4.64,0,0,0-.46,2.1,2.28,2.28,0,0,0,2.2,2.6,2.2,2.2,0,0,0,1.77-.92c-1,2.3-2,4.54-3,6.67-.26.54-.59,1.18-1,1.92a21,21,0,0,1-1.33,2.1c-.1.14-.21.28-.32.41v-.06a2.88,2.88,0,0,0-1.13-2.34,3.27,3.27,0,0,0-2-.7,3.5,3.5,0,0,0-1.61.41h-.05a3.94,3.94,0,0,0-1.69,1.84,5.13,5.13,0,0,0,.89,5.69,5.67,5.67,0,0,0,4.46,1.68,8.29,8.29,0,0,0,4.54-1.36,14.7,14.7,0,0,0,3.53-3.26A32,32,0,0,0,200,38a49.13,49.13,0,0,0,2.32-4.65c.68-1.57,1.29-3.09,1.82-4.52s1-2.68,1.35-3.75l.71-2.07,1.3-.06a19.34,19.34,0,0,0,2.45-.24,6.94,6.94,0,0,0,2.75-.95,4.41,4.41,0,0,0,1.7-2.17l2.13-5.76-4.92,3.27a5.45,5.45,0,0,1-.69.11c-.69.09-1.53.15-2.49.19h-.22q.23-.6.45-1.23a44.2,44.2,0,0,1,1.8-4.2,16.79,16.79,0,0,1,1.47-2.47,2.82,2.82,0,0,0-.09.71,2.91,2.91,0,0,0,1.26,2.43,3.57,3.57,0,0,0,2.06.65,5.37,5.37,0,0,0,.77-.07,3.27,3.27,0,0,0,1.05-.36,4.33,4.33,0,0,0,1.95-2.07,5.86,5.86,0,0,0,.59-2.5,4.64,4.64,0,0,0-.22-1.48v0a4.92,4.92,0,0,0-2.56-2.93,7.38,7.38,0,0,0-3.13-.63Z"
        transform="translate(-3.06 -0.17)" />
</svg>